<svg width="24" height="24" viewBox="0 0 24 24" fill="none" xmlns="http://www.w3.org/2000/svg">
<g clip-path="url(#clip0_180_428)">
<path d="M20.71 19.29L17.31 15.9C18.407 14.5025 19.0022 12.7767 19 11C19 9.41775 18.5308 7.87103 17.6518 6.55544C16.7727 5.23985 15.5233 4.21447 14.0615 3.60897C12.5997 3.00347 10.9911 2.84504 9.43928 3.15372C7.88743 3.4624 6.46197 4.22433 5.34315 5.34315C4.22433 6.46197 3.4624 7.88743 3.15372 9.43928C2.84504 10.9911 3.00347 12.5997 3.60897 14.0615C4.21447 15.5233 5.23985 16.7727 6.55544 17.6518C7.87103 18.5308 9.41775 19 11 19C12.7767 19.0022 14.5025 18.407 15.9 17.31L19.29 20.71C19.383 20.8037 19.4936 20.8781 19.6154 20.9289C19.7373 20.9797 19.868 21.0058 20 21.0058C20.132 21.0058 20.2627 20.9797 20.3846 20.9289C20.5064 20.8781 20.617 20.8037 20.71 20.71C20.8037 20.617 20.8781 20.5064 20.9289 20.3846C20.9797 20.2627 21.0058 20.132 21.0058 20C21.0058 19.868 20.9797 19.7373 20.9289 19.6154C20.8781 19.4936 20.8037 19.383 20.71 19.29ZM5 11C5 9.81332 5.3519 8.65328 6.01119 7.66658C6.67047 6.67989 7.60755 5.91085 8.7039 5.45673C9.80026 5.0026 11.0067 4.88378 12.1705 5.11529C13.3344 5.3468 14.4035 5.91825 15.2426 6.75736C16.0818 7.59648 16.6532 8.66558 16.8847 9.82946C17.1162 10.9933 16.9974 12.1997 16.5433 13.2961C16.0892 14.3925 15.3201 15.3295 14.3334 15.9888C13.3467 16.6481 12.1867 17 11 17C9.4087 17 7.88258 16.3679 6.75736 15.2426C5.63214 14.1174 5 12.5913 5 11Z" fill="white"/>
</g>
<path d="M10.6291 15.5833C10.5808 15.5833 10.5329 15.5748 10.4875 15.5583C10.3999 15.5263 10.3256 15.4657 10.2765 15.3864C10.2274 15.3071 10.2063 15.2135 10.2166 15.1208L10.5375 12.1667H8.08331C8.00762 12.1668 7.93332 12.1463 7.8684 12.1073C7.80348 12.0684 7.75039 12.0125 7.71484 11.9457C7.67928 11.8789 7.66261 11.8036 7.66659 11.728C7.67058 11.6525 7.69509 11.5794 7.73748 11.5167L11.025 6.6C11.077 6.52306 11.1532 6.46569 11.2415 6.437C11.3298 6.40832 11.4252 6.40996 11.5125 6.44167C11.5964 6.47282 11.668 6.53016 11.7168 6.6052C11.7656 6.68025 11.7889 6.769 11.7833 6.85833L11.4625 9.83333H13.9166C13.9923 9.83322 14.0666 9.85373 14.1316 9.89266C14.1965 9.93158 14.2496 9.98746 14.2851 10.0543C14.3207 10.1211 14.3373 10.1964 14.3334 10.272C14.3294 10.3475 14.3049 10.4206 14.2625 10.4833L10.975 15.4C10.9368 15.4565 10.8852 15.5028 10.8249 15.5348C10.7646 15.5668 10.6974 15.5834 10.6291 15.5833Z" fill="white"/>
<defs>
<clipPath id="clip0_180_428">
<rect width="24" height="24" fill="white"/>
</clipPath>
</defs>
</svg>
